<svg width="78" height="87" viewBox="0 0 78 87" fill="none" xmlns="http://www.w3.org/2000/svg">
<path d="M62.4025 48.3202C60.9999 47.0348 54.4272 36.5799 52.7787 34.7578C50.2244 32.4229 47.5408 30.2333 44.7407 28.1997C43.9531 27.6428 42.5113 26.6304 41.388 27.121C41.0604 27.2593 40.7681 27.4697 40.5328 27.7364C40.2975 28.0031 40.1253 28.3193 40.0289 28.6617C40.0289 28.6617 38.8836 27.6351 38.4195 27.3268C37.9685 26.8828 37.383 26.601 36.7547 26.5254C36.1264 26.4498 35.4907 26.5848 34.9473 26.9091C34.3086 27.2952 33.8367 27.9055 33.6238 28.6208C33.6238 28.6208 30.9837 26.3865 28.8326 28.0724C26.5427 29.8566 28.0079 32.3361 28.379 32.9801C29.1653 34.3473 30.8127 37.2737 30.8127 37.2737C29.9243 37.6263 28.9471 37.6887 28.021 37.4522C24.9667 36.0556 22.0287 34.4173 19.2351 32.553C16.5856 30.7545 9.71873 26.296 7.51193 24.9313C5.30514 23.5667 2.89287 22.4827 1.58216 24.5409C0.162805 26.7743 2.52348 28.373 3.61989 29.4343C4.71629 30.4955 11.2341 35.0669 13.7449 36.9638C15.1239 38.0085 19.236 41.246 22.6534 43.971C20.139 43.5726 18.7468 44.9284 18.6239 45.9475C18.501 46.9666 21.9008 47.8525 24.1947 54.4893C24.6555 55.8299 29.6658 57.3265 34.974 61.7139C35.5456 62.1911 39.8727 63.5717 43.2228 65.1305C43.5306 65.4005 43.887 65.6095 44.2729 65.7464C45.9052 66.0596 49.5481 66.9079 51.9252 67.3547C54.3022 67.8015 60.3637 75.1858 60.3637 75.1858L79.1211 61.8756C79.1211 61.8756 63.8225 49.6301 62.4025 48.3202Z" fill="#FFBD95"/>
<path d="M1.88185 24.2547C2.10267 23.8636 2.44097 23.5518 2.84882 23.3637C3.25667 23.1755 3.71338 23.1204 4.15427 23.2062C5.56351 23.8294 6.80802 24.7726 7.78892 25.961C7.9662 26.5218 6.54158 28.9552 5.90521 29.1124C5.0455 29.3178 2.5959 27.5246 2.00377 26.9148C1.6604 26.5637 1.4582 26.0986 1.43572 25.608C1.41323 25.1174 1.57203 24.6357 1.88185 24.2547Z" fill="#FFC8A7"/>
<path d="M22.7323 44.0131C22.7323 44.0131 25.6428 46.3867 29.8427 50.1627C30.3017 50.5849 31.4591 51.8358 31.4591 51.8358C32.018 53.2308 32.6721 54.5857 33.4169 55.8909C34.8006 57.5586 36.2762 59.1478 37.837 60.651C37.837 60.651 33.0911 58.6112 31.2451 56.0096C29.8214 54.0034 28.2177 50.8621 27.6279 50.2383C25.9873 48.4965 22.7323 44.0131 22.7323 44.0131Z" fill="#F9A983"/>
<path d="M33.5948 28.5801C34.9736 30.4715 36.4567 32.2846 38.0372 34.011C39.0913 34.8571 40.097 35.1857 40.4816 34.8638C41.0015 34.4213 40.3717 33.5684 39.104 32.6287C37.8364 31.6889 33.5948 28.5801 33.5948 28.5801Z" fill="#F9A983"/>
<path d="M39.9929 28.6628C41.0892 29.9816 42.2818 31.2174 43.5607 32.3601C44.614 33.0841 45.229 33.4324 45.696 33.1746C46.1629 32.9169 45.9054 32.3639 45.1562 31.7919C43.4912 30.659 41.7677 29.6145 39.9929 28.6628Z" fill="#F9A983"/>
<path d="M27.5673 37.2102C28.2065 37.7637 28.9756 38.1461 29.8028 38.3215C30.3497 38.4403 30.92 38.3868 31.4354 38.1685L30.7757 37.2388C30.3152 37.3752 29.8466 37.4824 29.3727 37.5599C28.7491 37.6352 28.1176 37.5129 27.5673 37.2102Z" fill="#F9A983"/>
<path d="M5.89705 29.1182C6.5171 28.9725 7.85175 26.6889 7.79338 26.0191C7.17784 26.3182 6.65878 26.7842 6.29541 27.3641C5.94959 27.8792 5.8076 28.5044 5.89705 29.1182Z" fill="#FFD3B9"/>
<g style="mix-blend-mode:soft-light">
<path d="M52.7692 34.8136C50.215 32.4786 47.5314 30.2891 44.7313 28.2555C43.9437 27.6985 42.5019 26.6862 41.3786 27.1767C41.0509 27.3151 40.7586 27.5255 40.5234 27.7922C40.2881 28.0589 40.1159 28.3751 40.0195 28.7174C40.0195 28.7174 38.8836 27.6351 38.4196 27.3268C37.9686 26.8828 37.3831 26.601 36.7547 26.5254C36.1264 26.4498 35.4908 26.5848 34.9474 26.9091C34.3086 27.2952 33.8367 27.9055 33.6238 28.6208C33.2982 28.3632 32.9467 28.14 32.575 27.955C33.5328 35.8506 36.7943 43.2895 41.9525 49.3436C50.1413 58.9827 59.9051 66.4007 71.6087 67.2554L79.185 61.8793C79.185 61.8793 63.8225 49.6301 62.4026 48.3202C60.9826 47.0103 54.4504 36.6126 52.7692 34.8136Z" fill="#F99C94"/>
</g>
<path d="M52.2352 64.854C48.6623 64.6918 40.5675 62.5637 40.5478 62.5531C40.5727 62.5966 40.6018 62.6376 40.6346 62.6755C37.9866 61.8814 35.5304 61.0984 35.4015 61.055C35.2726 61.0116 32.41 58.5673 30.2501 57.0958C28.0901 55.6244 24.9757 55.6763 24.7427 53.9656C24.369 52.2035 23.7883 50.4918 23.0125 48.8662L21.6676 49.563C22.7336 51.0592 23.5682 52.7073 24.1436 54.4519C24.6045 55.7926 29.6147 57.2891 34.923 61.6766C35.5514 62.1993 40.4914 63.8561 43.8444 65.6091C43.9466 65.6702 44.0573 65.7156 44.173 65.7438C45.8053 66.0569 49.4482 66.9052 51.8252 67.3521C54.2023 67.7989 60.3637 75.1858 60.3637 75.1858L65.8686 71.2796C65.8686 71.2796 54.0996 64.9412 52.2352 64.854Z" fill="#F9A983"/>
<path d="M21.9481 49.8545C21.9481 49.8545 22.9838 49.1195 22.958 48.8068C22.9323 48.494 20.8447 46.1741 19.8466 46.0118C18.8486 45.8494 18.3642 46.0827 18.3858 46.2513C19.4455 47.5723 20.6393 48.7798 21.9481 49.8545Z" fill="#FFC8A7"/>
</svg>
